<mxfile host="app.diagrams.net" modified="2022-07-29T06:57:13.303Z" agent="5.0 (Windows NT 10.0; Win64; x64) AppleWebKit/537.36 (KHTML, like Gecko) Chrome/103.0.5060.134 Safari/537.36" etag="vXtY2Yp8uOKu-Sm48Csj" version="20.2.2" type="github">
  <diagram id="2K0YEEOZ1l51ox7jcc1k" name="Page-1">
    <mxGraphModel dx="1361" dy="766" grid="0" gridSize="10" guides="1" tooltips="1" connect="1" arrows="1" fold="1" page="1" pageScale="1" pageWidth="850" pageHeight="1100" background="#FFFFFF" math="0" shadow="1">
      <root>
        <mxCell id="0" />
        <mxCell id="1" parent="0" />
        <mxCell id="Ib_drEK7eYLLQow4bi6I-1" value="AWS Cloud" style="points=[[0,0],[0.25,0],[0.5,0],[0.75,0],[1,0],[1,0.25],[1,0.5],[1,0.75],[1,1],[0.75,1],[0.5,1],[0.25,1],[0,1],[0,0.75],[0,0.5],[0,0.25]];outlineConnect=0;gradientColor=none;html=1;whiteSpace=wrap;fontSize=12;fontStyle=0;container=1;pointerEvents=0;collapsible=0;recursiveResize=0;shape=mxgraph.aws4.group;grIcon=mxgraph.aws4.group_aws_cloud_alt;strokeColor=#232F3E;fillColor=none;verticalAlign=top;align=left;spacingLeft=30;fontColor=#232F3E;dashed=0;" parent="1" vertex="1">
          <mxGeometry x="20" y="20" width="810" height="670" as="geometry" />
        </mxCell>
        <mxCell id="Ib_drEK7eYLLQow4bi6I-23" value="" style="edgeStyle=orthogonalEdgeStyle;rounded=0;orthogonalLoop=1;jettySize=auto;html=1;strokeColor=#000000;" parent="Ib_drEK7eYLLQow4bi6I-1" source="Ib_drEK7eYLLQow4bi6I-13" target="Ib_drEK7eYLLQow4bi6I-15" edge="1">
          <mxGeometry relative="1" as="geometry" />
        </mxCell>
        <mxCell id="Ib_drEK7eYLLQow4bi6I-13" value="" style="sketch=0;points=[[0,0,0],[0.25,0,0],[0.5,0,0],[0.75,0,0],[1,0,0],[0,1,0],[0.25,1,0],[0.5,1,0],[0.75,1,0],[1,1,0],[0,0.25,0],[0,0.5,0],[0,0.75,0],[1,0.25,0],[1,0.5,0],[1,0.75,0]];outlineConnect=0;fontColor=#232F3E;gradientColor=#F78E04;gradientDirection=north;fillColor=#D05C17;strokeColor=#ffffff;dashed=0;verticalLabelPosition=bottom;verticalAlign=top;align=center;html=1;fontSize=12;fontStyle=0;aspect=fixed;shape=mxgraph.aws4.resourceIcon;resIcon=mxgraph.aws4.lambda;" parent="Ib_drEK7eYLLQow4bi6I-1" vertex="1">
          <mxGeometry x="270" y="250" width="70" height="70" as="geometry" />
        </mxCell>
        <mxCell id="Ib_drEK7eYLLQow4bi6I-51" style="edgeStyle=orthogonalEdgeStyle;rounded=0;orthogonalLoop=1;jettySize=auto;html=1;entryX=0.5;entryY=1;entryDx=0;entryDy=0;entryPerimeter=0;strokeColor=#000000;" parent="Ib_drEK7eYLLQow4bi6I-1" source="Ib_drEK7eYLLQow4bi6I-14" target="Ib_drEK7eYLLQow4bi6I-13" edge="1">
          <mxGeometry relative="1" as="geometry" />
        </mxCell>
        <mxCell id="Ib_drEK7eYLLQow4bi6I-14" value="" style="sketch=0;points=[[0,0,0],[0.25,0,0],[0.5,0,0],[0.75,0,0],[1,0,0],[0,1,0],[0.25,1,0],[0.5,1,0],[0.75,1,0],[1,1,0],[0,0.25,0],[0,0.5,0],[0,0.75,0],[1,0.25,0],[1,0.5,0],[1,0.75,0]];outlineConnect=0;fontColor=#232F3E;gradientColor=#F54749;gradientDirection=north;fillColor=#C7131F;strokeColor=#ffffff;dashed=0;verticalLabelPosition=bottom;verticalAlign=top;align=center;html=1;fontSize=12;fontStyle=0;aspect=fixed;shape=mxgraph.aws4.resourceIcon;resIcon=mxgraph.aws4.key_management_service;" parent="Ib_drEK7eYLLQow4bi6I-1" vertex="1">
          <mxGeometry x="110" y="380" width="70" height="70" as="geometry" />
        </mxCell>
        <mxCell id="Ib_drEK7eYLLQow4bi6I-15" value="" style="sketch=0;points=[[0,0,0],[0.25,0,0],[0.5,0,0],[0.75,0,0],[1,0,0],[0,1,0],[0.25,1,0],[0.5,1,0],[0.75,1,0],[1,1,0],[0,0.25,0],[0,0.5,0],[0,0.75,0],[1,0.25,0],[1,0.5,0],[1,0.75,0]];outlineConnect=0;fontColor=#232F3E;gradientColor=#4D72F3;gradientDirection=north;fillColor=#3334B9;strokeColor=#ffffff;dashed=0;verticalLabelPosition=bottom;verticalAlign=top;align=center;html=1;fontSize=12;fontStyle=0;aspect=fixed;shape=mxgraph.aws4.resourceIcon;resIcon=mxgraph.aws4.dynamodb;" parent="Ib_drEK7eYLLQow4bi6I-1" vertex="1">
          <mxGeometry x="270" y="90" width="70" height="70" as="geometry" />
        </mxCell>
        <mxCell id="Ib_drEK7eYLLQow4bi6I-16" value="" style="sketch=0;points=[[0,0,0],[0.25,0,0],[0.5,0,0],[0.75,0,0],[1,0,0],[0,1,0],[0.25,1,0],[0.5,1,0],[0.75,1,0],[1,1,0],[0,0.25,0],[0,0.5,0],[0,0.75,0],[1,0.25,0],[1,0.5,0],[1,0.75,0]];points=[[0,0,0],[0.25,0,0],[0.5,0,0],[0.75,0,0],[1,0,0],[0,1,0],[0.25,1,0],[0.5,1,0],[0.75,1,0],[1,1,0],[0,0.25,0],[0,0.5,0],[0,0.75,0],[1,0.25,0],[1,0.5,0],[1,0.75,0]];outlineConnect=0;fontColor=#232F3E;gradientColor=#F34482;gradientDirection=north;fillColor=#BC1356;strokeColor=#ffffff;dashed=0;verticalLabelPosition=bottom;verticalAlign=top;align=center;html=1;fontSize=12;fontStyle=0;aspect=fixed;shape=mxgraph.aws4.resourceIcon;resIcon=mxgraph.aws4.cloudwatch_2;" parent="Ib_drEK7eYLLQow4bi6I-1" vertex="1">
          <mxGeometry x="110" y="250" width="70" height="70" as="geometry" />
        </mxCell>
        <mxCell id="Ib_drEK7eYLLQow4bi6I-21" value="" style="edgeStyle=orthogonalEdgeStyle;html=1;endArrow=none;elbow=vertical;startArrow=block;startFill=1;strokeColor=#000000;rounded=0;" parent="Ib_drEK7eYLLQow4bi6I-1" edge="1">
          <mxGeometry width="100" relative="1" as="geometry">
            <mxPoint x="180" y="310" as="sourcePoint" />
            <mxPoint x="270" y="310" as="targetPoint" />
          </mxGeometry>
        </mxCell>
        <mxCell id="Ib_drEK7eYLLQow4bi6I-22" value="" style="edgeStyle=orthogonalEdgeStyle;html=1;endArrow=block;elbow=vertical;startArrow=none;endFill=1;strokeColor=#000000;rounded=0;" parent="Ib_drEK7eYLLQow4bi6I-1" edge="1">
          <mxGeometry width="100" relative="1" as="geometry">
            <mxPoint x="180" y="280" as="sourcePoint" />
            <mxPoint x="270" y="280" as="targetPoint" />
          </mxGeometry>
        </mxCell>
        <mxCell id="Ib_drEK7eYLLQow4bi6I-35" value="Amazon CloudWatch" style="text;html=1;align=center;verticalAlign=middle;resizable=0;points=[];autosize=1;strokeColor=none;fillColor=none;fontFamily=Helvetica;fontSize=14;fontStyle=1" parent="Ib_drEK7eYLLQow4bi6I-1" vertex="1">
          <mxGeometry x="65" y="330" width="160" height="30" as="geometry" />
        </mxCell>
        <mxCell id="Ib_drEK7eYLLQow4bi6I-46" value="AWS KMS" style="text;html=1;align=center;verticalAlign=middle;resizable=0;points=[];autosize=1;strokeColor=none;fillColor=none;fontFamily=Helvetica;fontSize=14;fontStyle=1" parent="Ib_drEK7eYLLQow4bi6I-1" vertex="1">
          <mxGeometry x="100" y="470" width="90" height="30" as="geometry" />
        </mxCell>
        <mxCell id="Ib_drEK7eYLLQow4bi6I-47" value="AWS Lambda" style="text;html=1;align=center;verticalAlign=middle;resizable=0;points=[];autosize=1;strokeColor=none;fillColor=none;fontSize=14;fontStyle=1" parent="Ib_drEK7eYLLQow4bi6I-1" vertex="1">
          <mxGeometry x="245" y="330" width="110" height="30" as="geometry" />
        </mxCell>
        <mxCell id="Ib_drEK7eYLLQow4bi6I-49" value="AWS Lambda" style="text;html=1;align=center;verticalAlign=middle;resizable=0;points=[];autosize=1;strokeColor=none;fillColor=none;fontSize=14;fontStyle=1" parent="Ib_drEK7eYLLQow4bi6I-1" vertex="1">
          <mxGeometry x="250" y="180" width="110" height="30" as="geometry" />
        </mxCell>
        <mxCell id="Ib_drEK7eYLLQow4bi6I-11" value="" style="group" parent="1" vertex="1" connectable="0">
          <mxGeometry x="490" y="120" width="330" height="470" as="geometry" />
        </mxCell>
        <mxCell id="Ib_drEK7eYLLQow4bi6I-2" value="Mumbai Region" style="points=[[0,0],[0.25,0],[0.5,0],[0.75,0],[1,0],[1,0.25],[1,0.5],[1,0.75],[1,1],[0.75,1],[0.5,1],[0.25,1],[0,1],[0,0.75],[0,0.5],[0,0.25]];outlineConnect=0;gradientColor=none;html=1;whiteSpace=wrap;fontSize=12;fontStyle=0;container=1;pointerEvents=0;collapsible=0;recursiveResize=0;shape=mxgraph.aws4.group;grIcon=mxgraph.aws4.group_region;strokeColor=#147EBA;fillColor=none;verticalAlign=top;align=left;spacingLeft=30;fontColor=#147EBA;dashed=1;" parent="Ib_drEK7eYLLQow4bi6I-11" vertex="1">
          <mxGeometry width="330" height="470" as="geometry" />
        </mxCell>
        <mxCell id="Ib_drEK7eYLLQow4bi6I-3" value="Availability Zone" style="fillColor=none;strokeColor=#147EBA;dashed=1;verticalAlign=top;fontStyle=0;fontColor=#147EBA;" parent="Ib_drEK7eYLLQow4bi6I-11" vertex="1">
          <mxGeometry x="23.571428571428573" y="30" width="282.8571428571429" height="410" as="geometry" />
        </mxCell>
        <mxCell id="Ib_drEK7eYLLQow4bi6I-4" value="VPC" style="points=[[0,0],[0.25,0],[0.5,0],[0.75,0],[1,0],[1,0.25],[1,0.5],[1,0.75],[1,1],[0.75,1],[0.5,1],[0.25,1],[0,1],[0,0.75],[0,0.5],[0,0.25]];outlineConnect=0;gradientColor=none;html=1;whiteSpace=wrap;fontSize=12;fontStyle=0;container=1;pointerEvents=0;collapsible=0;recursiveResize=0;shape=mxgraph.aws4.group;grIcon=mxgraph.aws4.group_vpc;strokeColor=#248814;fillColor=none;verticalAlign=top;align=left;spacingLeft=30;fontColor=#AAB7B8;dashed=0;" parent="Ib_drEK7eYLLQow4bi6I-11" vertex="1">
          <mxGeometry x="41.25" y="120" width="247.5" height="230" as="geometry" />
        </mxCell>
        <mxCell id="Ib_drEK7eYLLQow4bi6I-6" value="Private subnet" style="points=[[0,0],[0.25,0],[0.5,0],[0.75,0],[1,0],[1,0.25],[1,0.5],[1,0.75],[1,1],[0.75,1],[0.5,1],[0.25,1],[0,1],[0,0.75],[0,0.5],[0,0.25]];outlineConnect=0;gradientColor=none;html=1;whiteSpace=wrap;fontSize=12;fontStyle=0;container=1;pointerEvents=0;collapsible=0;recursiveResize=0;shape=mxgraph.aws4.group;grIcon=mxgraph.aws4.group_security_group;grStroke=0;strokeColor=#147EBA;fillColor=#E6F2F8;verticalAlign=top;align=left;spacingLeft=30;fontColor=#147EBA;dashed=0;" parent="Ib_drEK7eYLLQow4bi6I-4" vertex="1">
          <mxGeometry x="130" y="40" width="100" height="120" as="geometry" />
        </mxCell>
        <mxCell id="Ib_drEK7eYLLQow4bi6I-34" value="" style="edgeStyle=orthogonalEdgeStyle;html=1;endArrow=block;elbow=vertical;startArrow=none;endFill=1;strokeColor=#000000;rounded=0;entryX=0.5;entryY=1;entryDx=0;entryDy=0;entryPerimeter=0;" parent="Ib_drEK7eYLLQow4bi6I-4" target="Ib_drEK7eYLLQow4bi6I-9" edge="1">
          <mxGeometry width="100" relative="1" as="geometry">
            <mxPoint x="68.75" y="180" as="sourcePoint" />
            <mxPoint x="173.75" y="180" as="targetPoint" />
          </mxGeometry>
        </mxCell>
        <mxCell id="Ib_drEK7eYLLQow4bi6I-5" value="Public subnet" style="points=[[0,0],[0.25,0],[0.5,0],[0.75,0],[1,0],[1,0.25],[1,0.5],[1,0.75],[1,1],[0.75,1],[0.5,1],[0.25,1],[0,1],[0,0.75],[0,0.5],[0,0.25]];outlineConnect=0;gradientColor=none;html=1;whiteSpace=wrap;fontSize=12;fontStyle=0;container=1;pointerEvents=0;collapsible=0;recursiveResize=0;shape=mxgraph.aws4.group;grIcon=mxgraph.aws4.group_security_group;grStroke=0;strokeColor=#248814;fillColor=#E9F3E6;verticalAlign=top;align=left;spacingLeft=30;fontColor=#248814;dashed=0;" parent="Ib_drEK7eYLLQow4bi6I-11" vertex="1">
          <mxGeometry x="60" y="160" width="100" height="120" as="geometry" />
        </mxCell>
        <mxCell id="Ib_drEK7eYLLQow4bi6I-9" value="" style="sketch=0;points=[[0,0,0],[0.25,0,0],[0.5,0,0],[0.75,0,0],[1,0,0],[0,1,0],[0.25,1,0],[0.5,1,0],[0.75,1,0],[1,1,0],[0,0.25,0],[0,0.5,0],[0,0.75,0],[1,0.25,0],[1,0.5,0],[1,0.75,0]];outlineConnect=0;fontColor=#232F3E;gradientColor=#4D72F3;gradientDirection=north;fillColor=#3334B9;strokeColor=#ffffff;dashed=0;verticalLabelPosition=bottom;verticalAlign=top;align=center;html=1;fontSize=12;fontStyle=0;aspect=fixed;shape=mxgraph.aws4.resourceIcon;resIcon=mxgraph.aws4.rds;" parent="Ib_drEK7eYLLQow4bi6I-11" vertex="1">
          <mxGeometry x="198.27" y="210" width="50" height="50" as="geometry" />
        </mxCell>
        <mxCell id="Ib_drEK7eYLLQow4bi6I-7" value="" style="sketch=0;points=[[0,0,0],[0.25,0,0],[0.5,0,0],[0.75,0,0],[1,0,0],[0,1,0],[0.25,1,0],[0.5,1,0],[0.75,1,0],[1,1,0],[0,0.25,0],[0,0.5,0],[0,0.75,0],[1,0.25,0],[1,0.5,0],[1,0.75,0]];outlineConnect=0;fontColor=#232F3E;gradientColor=#F78E04;gradientDirection=north;fillColor=#D05C17;strokeColor=#ffffff;dashed=0;verticalLabelPosition=bottom;verticalAlign=top;align=center;html=1;fontSize=12;fontStyle=0;aspect=fixed;shape=mxgraph.aws4.resourceIcon;resIcon=mxgraph.aws4.ec2;" parent="Ib_drEK7eYLLQow4bi6I-11" vertex="1">
          <mxGeometry x="88" y="210" width="50" height="50" as="geometry" />
        </mxCell>
        <mxCell id="Ib_drEK7eYLLQow4bi6I-52" value="Amazon EC2" style="text;html=1;align=center;verticalAlign=middle;resizable=0;points=[];autosize=1;strokeColor=none;fillColor=none;fontStyle=1" parent="Ib_drEK7eYLLQow4bi6I-11" vertex="1">
          <mxGeometry x="63" y="260" width="100" height="30" as="geometry" />
        </mxCell>
        <mxCell id="Ib_drEK7eYLLQow4bi6I-53" value="Amazon RDS" style="text;html=1;align=center;verticalAlign=middle;resizable=0;points=[];autosize=1;strokeColor=none;fillColor=none;fontStyle=1" parent="Ib_drEK7eYLLQow4bi6I-11" vertex="1">
          <mxGeometry x="173.26999999999998" y="260" width="100" height="30" as="geometry" />
        </mxCell>
        <mxCell id="Ib_drEK7eYLLQow4bi6I-28" style="edgeStyle=orthogonalEdgeStyle;rounded=0;orthogonalLoop=1;jettySize=auto;html=1;entryX=0.5;entryY=1;entryDx=0;entryDy=0;entryPerimeter=0;strokeColor=#000000;" parent="1" source="Ib_drEK7eYLLQow4bi6I-13" target="Ib_drEK7eYLLQow4bi6I-7" edge="1">
          <mxGeometry relative="1" as="geometry">
            <Array as="points">
              <mxPoint x="469" y="305" />
              <mxPoint x="469" y="420" />
              <mxPoint x="603" y="420" />
            </Array>
          </mxGeometry>
        </mxCell>
      </root>
    </mxGraphModel>
  </diagram>
</mxfile>
